<svg xmlns="http://www.w3.org/2000/svg" viewBox="0 0 100 100" width="24" height="24">
  <path d="M57.6,44.9c0-10.7-5.1-15.4-14.8-15.4c-8.9,0-15.1,4.5-15.5,5.1l3.5,6.6c0,0,5.1-4.1,10.6-4.1c4.5,0,6.5,2.1,6.5,5.6v3.3c-16,0-23.7,6-23.7,14.6c0,8,5.8,12.5,12.8,12.5c6.3,0,10.8-3.4,12.8-6.6h0.5l1.3,5.6h8.8V44.9z M48.8,59.3c0,4.4-2.8,7-6.5,7c-3.1,0-5.1-1.9-5.1-4.8c0-4,3.7-6.1,11.6-6.1V59.3z" fill="#ffffff"/>
  <path d="M11,83.9c10.8,6.1,24.1,8.9,37,8.9c13.7,0,26.9-3.5,37.3-10.3c1.7-1.1,0.9-3.2-1.1-2.2c-10.9,5.7-23.6,8.8-36.4,8.8c-13.1,0-25.9-3.4-36.3-9.7C9.6,78.3,8.7,82.6,11,83.9z" fill="#FF9900"/>
  <path d="M88.5,80.1c-1.3-1-3.6,0.3-4.5,1.1c-0.9,0.9-4,4.5-4,4.5s4.9-0.9,7.4-0.4c2.5,0.5,5.4,2.3,5.4,2.3C93.4,85.5,89.8,81.1,88.5,80.1z" fill="#FF9900"/>
</svg>
